<svg xmlns="http://www.w3.org/2000/svg" viewBox="0 0 32 32">
  <defs>
    <linearGradient id="g" x1="2" y1="2" x2="30" y2="30" gradientUnits="userSpaceOnUse">
      <stop offset="0" stop-color="#38d6f0"/>
      <stop offset="1" stop-color="#8b5cf6"/>
    </linearGradient>
  </defs>
  <rect width="32" height="32" rx="7" fill="#0d1220"/>
  <path d="M6.4 22.6 9.1 9.9a3 3 0 0 1 2.6-2.35 42 42 0 0 1 8.6 0 3 3 0 0 1 2.6 2.35l2.7 12.7a2 2 0 0 1-1.65 2.4 62 62 0 0 1-16.3 0 2 2 0 0 1-1.65-2.4Z" fill="none" stroke="url(#g)" stroke-width="1.9" stroke-linejoin="round"/>
  <path d="m11.6 16.9 3.05 3.1 6.05-7.2" fill="none" stroke="url(#g)" stroke-width="2.6" stroke-linecap="round" stroke-linejoin="round"/>
</svg>
